<svg xmlns="http://www.w3.org/2000/svg" viewBox="0 0 1200 675" width="100%" height="100%">
  <defs>
    <linearGradient id="bg" x1="0%" y1="0%" x2="100%" y2="100%">
      <stop offset="0%" stop-color="#0d111a"/>
      <stop offset="50%" stop-color="#161b26"/>
      <stop offset="100%" stop-color="#0a0d14"/>
    </linearGradient>
    <linearGradient id="cardGrad" x1="0%" y1="0%" x2="100%" y2="100%">
      <stop offset="0%" stop-color="#3355FF" stop-opacity="0.25"/>
      <stop offset="100%" stop-color="#8FA0FF" stop-opacity="0.05"/>
    </linearGradient>
    <linearGradient id="accent" x1="0%" y1="0%" x2="100%" y2="0%">
      <stop offset="0%" stop-color="#3355FF"/>
      <stop offset="100%" stop-color="#8FA0FF"/>
    </linearGradient>
  </defs>
  <rect width="1200" height="675" fill="url(#bg)"/>
  <!-- UI Card 1 -->
  <rect x="100" y="80" width="1000" height="515" rx="16" fill="rgba(255,255,255,0.03)" stroke="rgba(255,255,255,0.1)" stroke-width="1.5"/>
  <rect x="140" y="120" width="340" height="200" rx="12" fill="url(#cardGrad)" stroke="#3355FF" stroke-opacity="0.4" stroke-width="1"/>
  <text x="170" y="170" fill="#8FA0FF" font-family="sans-serif" font-size="14" letter-spacing="2">TOTAL PORTFOLIO VALUE</text>
  <text x="170" y="225" fill="#EFF1EC" font-family="sans-serif" font-size="42" font-weight="600">$184,920.45</text>
  <path d="M170 270 Q 230 240, 290 260 T 410 230" fill="none" stroke="#3355FF" stroke-width="4"/>

  <!-- UI Card 2 -->
  <rect x="510" y="120" width="550" height="435" rx="12" fill="rgba(255,255,255,0.02)" stroke="rgba(255,255,255,0.08)" stroke-width="1"/>
  <text x="550" y="170" fill="#6B6F68" font-family="sans-serif" font-size="14" letter-spacing="2">ANALYTICS &amp; VOLUME</text>
  <!-- Bar chart elements -->
  <rect x="550" y="440" width="36" height="120" rx="4" fill="#3355FF"/>
  <rect x="610" y="380" width="36" height="180" rx="4" fill="#8FA0FF"/>
  <rect x="670" y="320" width="36" height="240" rx="4" fill="#3355FF"/>
  <rect x="730" y="240" width="36" height="320" rx="4" fill="url(#accent)"/>
  <rect x="790" y="360" width="36" height="200" rx="4" fill="#3355FF"/>
  <rect x="850" y="290" width="36" height="270" rx="4" fill="#8FA0FF"/>
  <rect x="910" y="210" width="36" height="350" rx="4" fill="url(#accent)"/>
</svg>
